<svg id="Layer_2" data-name="Layer 2" xmlns="http://www.w3.org/2000/svg" width="34" height="34" viewBox="0 0 34 34">
  <g id="invisible_box" data-name="invisible box">
    <rect id="Rectangle_18" data-name="Rectangle 18" width="34" height="34" fill="none"/>
    <rect id="Rectangle_19" data-name="Rectangle 19" width="34" height="34" fill="none"/>
  </g>
  <g id="icons_Q2" data-name="icons Q2" transform="translate(2.818 2.889)">
    <path id="Path_9" data-name="Path 9" d="M32.183,5.509V30.733a.211.211,0,0,1-.07.141,1.339,1.339,0,0,1-1.268,1.268h-7.4V21.292H26.9c.211,0,.211,0,.282-.211l.211-1.761c.07-.7.141-1.409.282-2.114s0-.211-.141-.211H23.447V14.246c0-.211.07-.493.07-.7a1.268,1.268,0,0,1,1.127-1.127l.916-.141h2.114c.141,0,.141,0,.141-.141V8.539c0-.07,0-.141-.141-.141H24.433a5.073,5.073,0,0,0-2.325.493,4.228,4.228,0,0,0-2.466,2.184,5.144,5.144,0,0,0-.564,2.537c-.07,1.057,0,2.184,0,3.312H15.485c-.141,0-.141.07-.141.141V21.08c0,.141,0,.141.141.141h3.593V32.072a.211.211,0,0,0-.07.141H5.339A1.339,1.339,0,0,1,4.07,30.945c-.07,0-.07-.07-.07-.141V5.509c0-.07,0-.141.07-.141A1.339,1.339,0,0,1,5.339,4.1H30.845a1.339,1.339,0,0,1,1.268,1.268Z" transform="translate(-4 -4.1)" fill="#fff"/>
  </g>
</svg>
