<svg id="Layer_2" data-name="Layer 2" xmlns="http://www.w3.org/2000/svg" width="34" height="34" viewBox="0 0 34 34">
  <g id="invisible_box" data-name="invisible box">
    <rect id="Rectangle_20" data-name="Rectangle 20" width="34" height="34" fill="none"/>
    <rect id="Rectangle_21" data-name="Rectangle 21" width="34" height="34" fill="none"/>
  </g>
  <g id="icons_Q2" data-name="icons Q2" transform="translate(1.478 1.344)">
    <path id="Path_10" data-name="Path 10" d="M17.609,1.9a15.3,15.3,0,0,0-4.817,29.892c.708.142,1.275-.637,1.275-1.275V28.462c-4.25.921-5.6-2.054-5.6-2.054a4.6,4.6,0,0,0-1.558-2.267c-1.417-.992.071-.921.071-.921a3.046,3.046,0,0,1,2.337,1.417c1.2,2.054,3.9,1.842,4.746,1.487a3.825,3.825,0,0,1,.354-2.054c-4.817-.85-7.437-3.683-7.437-7.508a7.579,7.579,0,0,1,2.054-5.383A4.392,4.392,0,0,1,9.25,6.645,6.3,6.3,0,0,1,13.784,8.7a10.7,10.7,0,0,1,3.825-.567,12.113,12.113,0,0,1,3.825.5,6.375,6.375,0,0,1,4.533-1.983,4.6,4.6,0,0,1,.283,4.533,7.579,7.579,0,0,1,1.983,5.383c0,3.825-2.621,6.658-7.437,7.508a3.825,3.825,0,0,1,.354,2.054v4.392A1.275,1.275,0,0,0,22.5,31.791,15.371,15.371,0,0,0,17.609,1.9Z" transform="translate(-2.087 -1.898)" fill="#fff"/>
  </g>
</svg>
