<svg id="Layer_2" data-name="Layer 2" xmlns="http://www.w3.org/2000/svg" width="34" height="34" viewBox="0 0 34 34">
  <g id="invisible_box" data-name="invisible box">
    <rect id="Rectangle_22" data-name="Rectangle 22" width="34" height="34" fill="none"/>
    <rect id="Rectangle_23" data-name="Rectangle 23" width="34" height="34" fill="none"/>
  </g>
  <g id="icons_Q2" data-name="icons Q2" transform="translate(2.833 2.903)">
    <path id="Path_11" data-name="Path 11" d="M30.208,4.1H6.125A2.054,2.054,0,0,0,4,6.154V30.308a2.054,2.054,0,0,0,2.125,2.054H30.208a2.054,2.054,0,0,0,2.054-2.054V6.154A2.054,2.054,0,0,0,30.208,4.1ZM12.429,28.183H8.179V14.724h4.25ZM10.3,12.883A2.479,2.479,0,0,1,7.9,10.4a2.408,2.408,0,0,1,4.817,0A2.479,2.479,0,0,1,10.3,12.883Zm17.779,15.3H23.9V21.6c0-1.558,0-3.542-2.2-3.542s-2.479,1.7-2.479,3.471v6.658H15.05V14.724h3.967v1.842h.071a4.392,4.392,0,0,1,3.967-2.2c4.25,0,5.029,2.762,5.029,6.446Z" transform="translate(-4 -4.098)" fill="#fff"/>
  </g>
</svg>
