<svg id="Layer_2" data-name="Layer 2" xmlns="http://www.w3.org/2000/svg" width="34" height="34" viewBox="0 0 34 34">
  <g id="invisible_box" data-name="invisible box">
    <rect id="Rectangle_24" data-name="Rectangle 24" width="34" height="34" fill="none"/>
    <rect id="Rectangle_25" data-name="Rectangle 25" width="34" height="34" fill="none"/>
  </g>
  <g id="icons_Q2" data-name="icons Q2" transform="translate(1.417 4.295)">
    <path id="Path_12" data-name="Path 12" d="M33.167,8.993a12.962,12.962,0,0,1-3.683,1.063,6.658,6.658,0,0,0,2.833-3.542,16.433,16.433,0,0,1-4.037,1.558,6.446,6.446,0,0,0-11.121,4.321,5.383,5.383,0,0,0,.212,1.488A18.275,18.275,0,0,1,4.2,7.223a6.021,6.021,0,0,0-.921,3.187,6.3,6.3,0,0,0,2.9,5.312,5.737,5.737,0,0,1-2.9-.779h0a6.3,6.3,0,0,0,5.1,6.3,6.092,6.092,0,0,1-1.7.283l-1.2-.142a6.517,6.517,0,0,0,6.021,4.463,12.892,12.892,0,0,1-7.933,2.692H2a17.779,17.779,0,0,0,9.775,2.9c11.758,0,18.2-9.775,18.2-18.2v-.921a12.962,12.962,0,0,0,3.188-3.329Z" transform="translate(-2 -6.063)" fill="#fff"/>
  </g>
</svg>
